<svg id="Capa_1" enable-background="new 0 0 512 512" height="512" viewBox="0 0 512 512" width="512" xmlns="http://www.w3.org/2000/svg"><g><path d="m497 0h-452c-8.284 0-15 6.716-15 15v106h-15c-8.284 0-15 6.716-15 15s6.716 15 15 15h15v90h-15c-8.284 0-15 6.716-15 15s6.716 15 15 15h15v90h-15c-8.284 0-15 6.716-15 15s6.716 15 15 15h15v106c0 8.284 6.716 15 15 15h452c8.284 0 15-6.716 15-15v-482c0-8.284-6.716-15-15-15zm-15 482h-422v-91h15c8.284 0 15-6.716 15-15s-6.716-15-15-15h-15v-90h15c8.284 0 15-6.716 15-15s-6.716-15-15-15h-15v-90h15c8.284 0 15-6.716 15-15s-6.716-15-15-15h-15v-91h422z"/><path d="m135 452h302c8.284 0 15-6.716 15-15v-362c0-8.284-6.716-15-15-15h-302c-8.284 0-15 6.716-15 15v362c0 8.284 6.716 15 15 15zm15-362h272v332h-272z"/><path d="m325.077 223.514c8.339-9.297 13.423-21.571 13.423-35.014 0-28.949-23.551-52.5-52.5-52.5s-52.5 23.551-52.5 52.5c0 13.443 5.084 25.717 13.423 35.014-17.184 12.248-28.423 32.323-28.423 54.986v22.5c0 8.284 6.716 15 15 15h105c8.284 0 15-6.716 15-15v-22.5c0-22.663-11.239-42.738-28.423-54.986zm-61.577-35.014c0-12.406 10.093-22.5 22.5-22.5s22.5 10.094 22.5 22.5-10.093 22.5-22.5 22.5-22.5-10.094-22.5-22.5zm60 97.5h-75v-7.5c0-20.677 16.822-37.5 37.5-37.5s37.5 16.823 37.5 37.5z"/><path d="m338.5 346h-105c-8.284 0-15 6.716-15 15s6.716 15 15 15h105c8.284 0 15-6.716 15-15s-6.716-15-15-15z"/></g></svg>